<?xml version="1.0" encoding="utf-8"?>
<!-- Svg Vector Icons : http://www.onlinewebfonts.com/icon -->
<!DOCTYPE svg PUBLIC "-//W3C//DTD SVG 1.1//EN" "http://www.w3.org/Graphics/SVG/1.1/DTD/svg11.dtd">
<svg version="1.1" xmlns="http://www.w3.org/2000/svg" xmlns:xlink="http://www.w3.org/1999/xlink" x="0px" y="0px" viewBox="0 0 1000 1000" enable-background="new 0 0 1000 1000" xml:space="preserve">
<metadata> Svg Vector Icons : http://www.onlinewebfonts.com/icon </metadata>
<g><path d="M749.5,990h-36.8c-32.2,0-57.5-25.3-57.5-57.5c0-23-23-32.2-36.8-23c-29.9,18.4-64.4,6.9-80.5-20.7l-18.4-32.2c-6.9-13.8-9.2-29.9-6.9-43.7c4.6-16.1,13.8-27.6,27.6-34.5c11.5-6.9,13.8-18.4,13.8-23c0-4.6-2.3-16.1-11.5-20.7c-13.8-9.2-25.3-20.7-27.6-36.8c-2.3-16.1-2.3-29.9,6.9-43.7l18.4-32.2c16.1-27.6,52.9-36.8,80.5-20.7c4.6,2.3,9.2,4.6,13.8,4.6c11.5,0,25.3-9.2,25.3-25.3c0-34.5,25.3-59.8,57.5-59.8h32.2c32.2,0,57.5,25.3,57.5,57.5c0,9.2,4.6,16.1,6.9,18.4c6.9,6.9,20.7,9.2,29.9,4.6c29.9-18.4,64.4-6.9,80.5,20.7l18.4,32.2c6.9,13.8,9.2,29.9,6.9,43.7c-4.6,16.1-13.8,27.6-27.6,34.5c-11.5,6.9-13.8,18.4-13.8,23c0,4.6,2.3,16.1,11.5,20.7c13.8,9.2,25.3,20.7,27.6,36.8c4.6,16.1,2.3,29.9-6.9,43.7l-13.8,32.2c-11.5,18.4-29.9,29.9-50.6,29.9l0,0c-9.2,0-20.7-2.3-29.9-6.9c-4.6-2.3-9.2-4.6-13.8-4.6c-11.5,0-25.3,9.2-25.3,25.3C809.3,964.7,781.7,990,749.5,990z M629.8,861.2c39.1,0,71.3,32.2,71.3,71.3c0,9.2,4.6,13.8,11.5,13.8h36.8c6.9,0,11.5-4.6,11.5-11.5c0-39.1,32.2-71.3,71.3-71.3c11.5,0,25.3,2.3,34.5,9.2c9.2,4.6,13.8,2.3,18.4-4.6l18.4-32.2c2.3-2.3,2.3-6.9,2.3-9.2c0-2.3-2.3-6.9-6.9-6.9c-23-13.8-36.8-36.8-36.8-62.1c0-25.3,13.8-48.3,34.5-62.1c6.9-4.6,9.2-11.5,4.6-18.4l-13.8-34.5c-2.3-4.6-11.5-6.9-16.1-4.6c-29.9,16.1-64.4,11.5-85.1-9.2c-13.8-13.8-20.7-32.2-20.7-50.6c0-9.2-4.6-13.8-11.5-13.8h-36.8c-6.9,0-11.5,4.6-11.5,11.5c0,39.1-32.2,71.3-71.3,71.3c-11.5,0-25.3-2.3-34.5-9.2c-9.2-4.6-13.8-2.3-18.4,4.6l-18.4,32.2c-2.3,2.3-2.3,6.9-2.3,9.2c0,2.3,2.3,6.9,6.9,6.9c23,13.8,36.8,36.8,36.8,62.1c0,25.3-13.8,48.3-34.5,62.1c-4.6,2.3-6.9,4.6-6.9,9.2c0,2.3,0,6.9,2.3,9.2l18.4,32.2c2.3,6.9,11.5,6.9,16.1,4.6C604.5,863.5,618.3,861.2,629.8,861.2z"/><path d="M731.1,831.3c-41.4,0-75.9-34.5-75.9-75.9c0-41.4,34.5-75.9,75.9-75.9c41.4,0,75.9,34.5,75.9,75.9C807,796.8,774.8,831.3,731.1,831.3z M731.1,723.1c-16.1,0-29.9,13.8-29.9,29.9c0,16.1,13.8,29.9,29.9,29.9c16.1,0,29.9-13.8,29.9-29.9C761,736.9,749.5,723.1,731.1,723.1z"/><path d="M411.3,382.7c-101.2,0-186.3-82.8-186.3-186.3C224.9,92.8,307.8,10,411.3,10c101.2,0,186.3,82.8,186.3,186.3C597.6,299.9,512.5,382.7,411.3,382.7z M411.3,58.3c-75.9,0-140.3,62.1-140.3,140.3c0,78.2,64.4,138,140.3,138c75.9,0,140.3-62.1,140.3-140.3C551.6,118.1,487.2,58.3,411.3,58.3z"/><path d="M413.6,854.3H105.3c-16.1,0-29.9-6.9-41.4-18.4s-16.1-27.6-13.8-43.7c18.4-186.3,174.8-324.4,361.2-324.4c48.3,0,96.6,9.2,140.3,27.6c11.5,4.6,16.1,18.4,11.5,29.9c-4.6,11.5-18.4,16.1-29.9,11.5c-39.1-16.1-80.5-25.3-121.9-25.3c-163.3,0-299.1,121.9-315.2,283c0,4.6,2.3,6.9,2.3,6.9c0,2.3,4.6,2.3,6.9,2.3h308.3c13.8,0,23,9.2,23,23C436.6,840.5,425.1,854.3,413.6,854.3z"/></g>
</svg>