<?xml version="1.0" encoding="utf-8"?>
<!-- Svg Vector Icons : http://www.onlinewebfonts.com/icon -->
<!DOCTYPE svg PUBLIC "-//W3C//DTD SVG 1.1//EN" "http://www.w3.org/Graphics/SVG/1.1/DTD/svg11.dtd">
<svg version="1.1" xmlns="http://www.w3.org/2000/svg" xmlns:xlink="http://www.w3.org/1999/xlink" x="0px" y="0px" viewBox="0 0 1000 1000" enable-background="new 0 0 1000 1000" xml:space="preserve">
<metadata> Svg Vector Icons : http://www.onlinewebfonts.com/icon </metadata>
<g><path d="M121.4,876.8c-3.6-4.3-6.8-8.6-9.6-12.9c-2.9-4.3-5-9.1-6.4-14.5c-1.4-5.4-2.1-10.9-2.1-16.6V391.1l210.5-247.2v-1.1c2.8-2.8,4.6-6.2,5.4-10.2c0.7-3.9,0.3-7.9-1.1-11.8c-1.4-3.9-3.6-7-6.4-9.1L246.2,55h429.2c17.1,0,31.8,6.1,43.9,18.2c12.1,12.1,18.2,26.8,18.2,43.9v270l45-43.9V117.1c0-29.3-10.7-54.6-32.1-76.1c-2.1-2.1-4.3-4.1-6.4-5.9c-2.1-1.8-4.3-3.8-6.4-5.9l-8.6-4.3c-2.1-2.1-4.6-3.6-7.5-4.3l-8.6-4.3c-2.9-0.7-5.9-1.6-9.1-2.7c-3.2-1.1-6.3-1.8-9.1-2.1c-2.9-0.4-5.9-0.7-9.1-1.1c-3.2-0.4-6.6-0.5-10.2-0.5H202.8h-4.3l-1.1,1.1h-1.1h-1.1c-1.4,0.7-2.7,1.3-3.8,1.6c-1.1,0.4-2,0.9-2.7,1.6l-1.1,1.1l-4.3,5.4l-1.1,1.1c-0.7,1.4-1.1,2.9-1.1,4.3L60.3,399c-1.5,2.9-2.1,5.7-2.1,8.6v425.4c0,29.3,10.5,54.5,31.6,75.5c21.1,21.1,46.2,31.6,75.5,31.6h118.9l16.1-45h-135C148.2,895.1,133.5,889,121.4,876.8z M195.9,71.1l68.6,60L119.8,304.7L195.9,71.1z"/><path d="M192.1,433.2h467.2v36.4H192.1V433.2z"/><path d="M192.1,525.4h233.6v36.4H192.1V525.4z"/><path d="M192.1,622.9h233.6v36.4H192.1V622.9z"/><path d="M433.2,132.2h226.1v36.4H433.2V132.2L433.2,132.2z"/><path d="M433.2,223.2h226.1v35.4H433.2V223.2L433.2,223.2z"/><path d="M433.2,322.9h226.1v35.3H433.2V322.9L433.2,322.9z"/><path d="M737.5,832.9c0,17.2-6.1,31.8-18.2,43.9c-12.2,12.1-26.8,18.2-43.9,18.2h-84.6l-26.8,25.7l19.3,19.3h92.2c29.3,0,54.5-10.5,75.5-31.6c21.1-21.1,31.6-46.3,31.6-75.5l0-127.5l-45,43.9V832.9L737.5,832.9z"/><path d="M924.1,436.4l-51.7-51.8c-5.9-5.6-12.6-9.9-20.1-13.1c-7.5-3.1-15.1-4.7-22.7-4.7c-7.7,0-15.4,1.5-23,4.7c-7.7,3.1-14.3,7.5-19.9,13.1L369.4,800.9l-49.3,164.6l-7.9,24.6l197.1-53.6L924,522.7c11.9-11.8,17.8-26.2,17.8-43.1C941.8,462.7,935.9,448.3,924.1,436.4z M374.3,933.7L408,826.3l13.2-13.3l74,74.2l-14.1,14.2L374.3,933.7z M445.7,788.5l314.2-314.9l72.7,73.2L518.3,863.9L445.7,788.5z M783.2,450.2l39.6-39.7l74.9,70.5l-41.9,42.3L783.2,450.2z"/></g>
</svg>